<svg width="24" height="24" viewBox="0 0 24 24" fill="none" xmlns="http://www.w3.org/2000/svg">
<path d="M20.2503 8.25H19.5003V7.5C19.5003 6.675 18.8253 6 18.0003 6H10.5003V7.5H18.0003V9.75H20.2503V14.25H18.0003V16.5H4.50033V12.75H3.00033V16.5C3.00033 17.325 3.67533 18 4.50033 18H18.0003C18.8253 18 19.5003 17.325 19.5003 16.5V15.75H20.2503C21.0753 15.75 21.7503 15.075 21.7503 14.25V9.75C21.7503 8.925 21.0753 8.25 20.2503 8.25ZM10.5003 10.5C10.5003 10.4025 10.4778 10.2975 10.4403 10.2075L6.66783 2.6625C6.6055 2.53881 6.51014 2.4348 6.39233 2.36199C6.27451 2.28918 6.13883 2.25042 6.00033 2.25C5.71533 2.25 5.45283 2.4075 5.33283 2.6625L1.58283 10.1625C1.53803 10.2505 1.51121 10.3465 1.50396 10.4449C1.49671 10.5434 1.50916 10.6423 1.54058 10.7359C1.57201 10.8294 1.62178 10.9158 1.68698 10.9899C1.75219 11.064 1.83151 11.1244 1.92033 11.1675C2.02533 11.22 2.13783 11.25 2.25783 11.25H9.75783C10.1703 11.25 10.5078 10.9125 10.5078 10.5H10.5003ZM3.46533 9.75L6.00033 4.68L8.53533 9.75H3.46533Z" fill="white"/>
</svg>
