<svg width="24" height="24" viewBox="0 0 24 24" fill="none" xmlns="http://www.w3.org/2000/svg">
<path d="M4.5 22.5H19.5C19.8978 22.5 20.2794 22.342 20.5607 22.0607C20.842 21.7794 21 21.3978 21 21V16.5C21 16.1022 20.842 15.7206 20.5607 15.4393C20.2794 15.158 19.8978 15 19.5 15H4.5C4.10218 15 3.72064 15.158 3.43934 15.4393C3.15804 15.7206 3 16.1022 3 16.5V21C3 21.3978 3.15804 21.7794 3.43934 22.0607C3.72064 22.342 4.10218 22.5 4.5 22.5ZM4.5 16.5H19.5V21H4.5V16.5Z" fill="white"/>
<path d="M6.75 19.5C7.16421 19.5 7.5 19.1642 7.5 18.75C7.5 18.3358 7.16421 18 6.75 18C6.33579 18 6 18.3358 6 18.75C6 19.1642 6.33579 19.5 6.75 19.5Z" fill="white"/>
<path d="M12 12C12.6213 12 13.125 11.4963 13.125 10.875C13.125 10.2537 12.6213 9.75 12 9.75C11.3787 9.75 10.875 10.2537 10.875 10.875C10.875 11.4963 11.3787 12 12 12Z" fill="white"/>
<path d="M8.08691 7.74959C8.57935 7.19915 9.18238 6.7588 9.85661 6.45731C10.5308 6.15583 11.2611 6 11.9997 6C12.7382 6 13.4685 6.15583 14.1427 6.45731C14.8169 6.7588 15.42 7.19915 15.9124 7.74959L14.7949 8.74934C14.4432 8.35615 14.0124 8.0416 13.5308 7.82624C13.0492 7.61089 12.5276 7.49957 12 7.49957C11.4725 7.49957 10.9509 7.61089 10.4693 7.82624C9.98765 8.0416 9.5569 8.35615 9.20516 8.74934L8.08691 7.74959Z" fill="white"/>
<path d="M5.40039 5.54998C6.16904 4.52563 7.16557 3.69426 8.3111 3.12166C9.45664 2.54907 10.7197 2.25098 12.0004 2.25098C13.2811 2.25098 14.5441 2.54907 15.6897 3.12166C16.8352 3.69426 17.8317 4.52563 18.6004 5.54998L17.4004 6.44998C16.7717 5.61151 15.9563 4.93096 15.019 4.46223C14.0816 3.99351 13.048 3.74948 12 3.74948C10.952 3.74948 9.91839 3.99351 8.98104 4.46223C8.0437 4.93096 7.22837 5.61151 6.59964 6.44998L5.40039 5.54998Z" fill="white"/>
</svg>
