<svg width="24" height="24" viewBox="0 0 24 24" fill="none" xmlns="http://www.w3.org/2000/svg">
<path d="M6.75 19.5C7.16421 19.5 7.5 19.1642 7.5 18.75C7.5 18.3358 7.16421 18 6.75 18C6.33579 18 6 18.3358 6 18.75C6 19.1642 6.33579 19.5 6.75 19.5Z" fill="white"/>
<path d="M4.5 22.5H19.5C19.8978 22.5 20.2794 22.342 20.5607 22.0607C20.842 21.7794 21 21.3978 21 21V16.5C21 16.1022 20.842 15.7206 20.5607 15.4393C20.2794 15.158 19.8978 15 19.5 15H4.5C4.10218 15 3.72064 15.158 3.43934 15.4393C3.15804 15.7206 3 16.1022 3 16.5V21C3 21.3978 3.15804 21.7794 3.43934 22.0607C3.72064 22.342 4.10218 22.5 4.5 22.5ZM4.5 16.5H19.5V21H4.5V16.5Z" fill="white"/>
<path d="M12 12C12.6213 12 13.125 11.4963 13.125 10.875C13.125 10.2537 12.6213 9.75 12 9.75C11.3787 9.75 10.875 10.2537 10.875 10.875C10.875 11.4963 11.3787 12 12 12Z" fill="white"/>
<path d="M18.6699 1.35742L16.4629 3.56348C17.2857 4.0924 18.0107 4.76366 18.6006 5.5498L17.4004 6.4502C16.8523 5.71922 16.1621 5.10766 15.373 4.65234L13.7314 6.29492C13.8706 6.34353 14.0085 6.39664 14.1436 6.45703C14.8178 6.75851 15.4207 7.19956 15.9131 7.75L14.7959 8.74902C14.4443 8.356 14.0136 8.04149 13.5322 7.82617C13.2012 7.67817 12.851 7.58042 12.4932 7.5332L8.23535 11.792L7.1748 10.7314L17.6094 0.296875L18.6699 1.35742ZM12 2.25098C12.475 2.25098 12.948 2.29222 13.4131 2.37305L12.0361 3.75C12.0241 3.74994 12.012 3.74902 12 3.74902C10.9522 3.74903 9.91867 3.99334 8.98145 4.46191C8.0441 4.93064 7.22834 5.61173 6.59961 6.4502L5.40039 5.5498C6.16903 4.52551 7.16603 3.69464 8.31152 3.12207C9.45689 2.54959 10.7195 2.25104 12 2.25098Z" fill="white"/>
</svg>
