<svg width="24" height="24" viewBox="0 0 24 24" fill="none" xmlns="http://www.w3.org/2000/svg">
<path d="M12.0018 4.62793H11.9988L3.48633 20.9974L3.48858 20.9997H20.5121L20.5136 20.9974L12.0018 4.62793ZM11.1566 8.99968H12.8441V15.7497H11.1566V8.99968ZM12.0003 19.4997C11.7778 19.4997 11.5603 19.4337 11.3753 19.3101C11.1903 19.1865 11.0461 19.0108 10.961 18.8052C10.8758 18.5996 10.8535 18.3734 10.8969 18.1552C10.9404 17.937 11.0475 17.7365 11.2048 17.5792C11.3622 17.4219 11.5626 17.3147 11.7809 17.2713C11.9991 17.2279 12.2253 17.2502 12.4308 17.3353C12.6364 17.4205 12.8121 17.5647 12.9357 17.7497C13.0593 17.9347 13.1253 18.1522 13.1253 18.3747C13.1253 18.673 13.0068 18.9592 12.7958 19.1702C12.5848 19.3812 12.2987 19.4997 12.0003 19.4997Z" fill="white"/>
<path d="M21.7497 22.5004H2.2497C2.1209 22.5003 1.99428 22.4671 1.88205 22.4039C1.76981 22.3407 1.67574 22.2497 1.6089 22.1396C1.54206 22.0295 1.5047 21.9041 1.50041 21.7753C1.49613 21.6466 1.52507 21.5189 1.58445 21.4046L11.3344 2.65465C11.3978 2.53295 11.4933 2.43096 11.6106 2.35979C11.7279 2.28861 11.8625 2.25098 11.9997 2.25098C12.1369 2.25098 12.2715 2.28861 12.3888 2.35979C12.5061 2.43096 12.6016 2.53295 12.6649 2.65465L22.4149 21.4046C22.4743 21.5189 22.5033 21.6466 22.499 21.7753C22.4947 21.9041 22.4573 22.0295 22.3905 22.1396C22.3237 22.2497 22.2296 22.3407 22.1174 22.4039C22.0051 22.4671 21.8785 22.5003 21.7497 22.5004ZM3.4872 21.0004H20.5122L20.5129 20.9981L12.0012 4.6279H11.9982L3.4857 20.9981L3.4872 21.0004Z" fill="white"/>
</svg>
