<svg width="78" height="25" viewBox="0 0 78 25" fill="none" xmlns="http://www.w3.org/2000/svg">
<path d="M69.583 12.9171V0.195312H71.2839V11.4287H77.6271V12.9171H69.583Z" fill="white"/>
<path d="M61.1071 0.195312H62.9853L67.8932 12.9171H66.1745L64.8811 9.5683H59.1759L57.9002 12.9171H56.1992L61.1071 0.195312ZM62.0108 2.10889L59.7429 8.07996H64.3141L62.0108 2.10889Z" fill="white"/>
<path d="M46.7773 0.195312H55.0872V1.68365H48.4606V5.5994H54.0772V7.08773H48.4606V11.4287H55.0872V12.9171H46.7773V0.195312Z" fill="white"/>
<path d="M36.0554 6.55577C36.0554 9.56788 37.7209 11.6055 40.0775 11.6055C41.7252 11.6055 42.9124 10.631 43.373 9.03634L44.9854 9.56789C44.2412 11.765 42.5048 13.1115 40.0775 13.1115C36.7819 13.1115 34.3545 10.4361 34.3545 6.55577C34.3545 2.67546 36.7819 0 40.0775 0C42.5048 0 44.2412 1.34659 44.9854 3.54366L43.373 4.07521C42.9124 2.48056 41.7252 1.50606 40.0775 1.50606C37.7209 1.50606 36.0554 3.54366 36.0554 6.55577Z" fill="white"/>
<path d="M27.2448 0.195312H29.123L34.0309 12.9171H32.3122L31.0188 9.5683H25.3136L24.0379 12.9171H22.3369L27.2448 0.195312ZM28.1485 2.10889L25.8805 8.07996H30.4518L28.1485 2.10889Z" fill="white"/>
<path d="M13.7175 7.58384V12.9171H12.0166V0.195312H16.8714C19.5645 0.195312 21.2832 1.45331 21.2832 3.88072C21.2832 5.91832 20.0429 7.15861 18.0231 7.49525L21.549 12.9171H19.6L16.1804 7.58384H13.7175ZM13.7175 6.11323H16.7828C18.59 6.11323 19.6 5.3159 19.6 3.88072C19.6 2.44554 18.59 1.66593 16.7828 1.66593H13.7175V6.11323Z" fill="white"/>
<path d="M10.312 1.68365H6.00646V12.9171H4.30551V1.68365H0V0.195312H10.312V1.68365Z" fill="white"/>
<path d="M62.9277 18.542H66.9586V19.0824H63.5479V21.3415H66.4536V21.8819H63.5479V24.3625H66.9586V24.9029H62.9277V18.542Z" fill="white"/>
<path d="M55.3906 24.9029V18.542H56.0108V24.3625H59.3329V24.9029H55.3906Z" fill="white"/>
<path d="M45.9316 21.7222C45.9316 19.7821 47.1365 18.4443 48.7577 18.4443C50.3878 18.4443 51.5837 19.7821 51.5837 21.7222C51.5837 23.6624 50.3878 25.0001 48.7577 25.0001C47.1365 25.0001 45.9316 23.6624 45.9316 21.7222ZM50.9636 21.7222C50.9636 20.1099 50.06 19.0025 48.7577 19.0025C47.4643 19.0025 46.5518 20.1099 46.5518 21.7222C46.5518 23.3346 47.4643 24.442 48.7577 24.442C50.06 24.442 50.9636 23.3346 50.9636 21.7222Z" fill="white"/>
<path d="M37.8262 23.5295L38.3223 23.1485C38.6944 23.9724 39.4474 24.4508 40.3599 24.4508C41.2635 24.4508 41.9722 23.9724 41.9722 23.1663C41.9722 22.2892 41.1926 22.1209 40.2004 21.8905C39.1728 21.6425 38.2071 21.3767 38.2071 20.2162C38.2071 19.1531 39.1373 18.4443 40.2801 18.4443C41.3964 18.4443 42.1494 18.9847 42.4949 19.7555L42.0077 20.101C41.6976 19.4366 41.166 18.9936 40.2713 18.9936C39.4385 18.9936 38.8007 19.4809 38.8007 20.1807C38.8007 20.9426 39.4828 21.1021 40.413 21.3324C41.4761 21.5982 42.5835 21.8108 42.5835 23.122C42.5835 24.2648 41.5647 25.0001 40.351 25.0001C39.2436 25.0001 38.216 24.4243 37.8262 23.5295Z" fill="white"/>
<path d="M34.2863 18.542V24.9029H33.7548L30.0428 19.419V24.9029H29.4404V18.542H30.1226L33.6839 23.822V18.542H34.2863Z" fill="white"/>
<path d="M19.9814 21.7222C19.9814 19.7821 21.1863 18.4443 22.8075 18.4443C24.4376 18.4443 25.6335 19.7821 25.6335 21.7222C25.6335 23.6624 24.4376 25.0001 22.8075 25.0001C21.1863 25.0001 19.9814 23.6624 19.9814 21.7222ZM25.0134 21.7222C25.0134 20.1099 24.1098 19.0025 22.8075 19.0025C21.5141 19.0025 20.6016 20.1099 20.6016 21.7222C20.6016 23.3346 21.5141 24.442 22.8075 24.442C24.1098 24.442 25.0134 23.3346 25.0134 21.7222Z" fill="white"/>
<path d="M12.1563 21.7222C12.1563 23.3346 13.0599 24.442 14.3533 24.442C15.2304 24.442 15.8682 23.937 16.134 23.0954L16.7276 23.2814C16.3555 24.3534 15.505 25.0001 14.3533 25.0001C12.7321 25.0001 11.5361 23.6624 11.5361 21.7222C11.5361 19.7821 12.7321 18.4443 14.3533 18.4443C15.505 18.4443 16.3555 19.0911 16.7276 20.163L16.134 20.3491C15.8682 19.5074 15.2304 19.0025 14.3533 19.0025C13.0599 19.0025 12.1563 20.1099 12.1563 21.7222Z" fill="white"/>
</svg>
