<svg width="24" height="24" viewBox="0 0 24 24" fill="none" xmlns="http://www.w3.org/2000/svg">
<path d="M12 17.25C11.7775 17.25 11.56 17.316 11.375 17.4396C11.19 17.5632 11.0458 17.7389 10.9606 17.9445C10.8755 18.15 10.8532 18.3762 10.8966 18.5945C10.94 18.8127 11.0472 19.0132 11.2045 19.1705C11.3618 19.3278 11.5623 19.435 11.7805 19.4784C11.9988 19.5218 12.225 19.4995 12.4305 19.4144C12.6361 19.3292 12.8118 19.185 12.9354 19C13.059 18.815 13.125 18.5975 13.125 18.375C13.125 18.0766 13.0065 17.7905 12.7955 17.5795C12.5845 17.3685 12.2984 17.25 12 17.25ZM11.25 9H12.75V15.75H11.25V9Z" fill="white"/>
<path d="M21.7497 22.5004H2.2497C2.1209 22.5003 1.99428 22.4671 1.88205 22.4039C1.76981 22.3407 1.67574 22.2497 1.6089 22.1396C1.54206 22.0295 1.5047 21.9041 1.50041 21.7753C1.49613 21.6466 1.52507 21.5189 1.58445 21.4046L11.3344 2.65465C11.3978 2.53295 11.4933 2.43096 11.6106 2.35979C11.7279 2.28861 11.8625 2.25098 11.9997 2.25098C12.1369 2.25098 12.2715 2.28861 12.3888 2.35979C12.5061 2.43096 12.6016 2.53295 12.6649 2.65465L22.4149 21.4046C22.4743 21.5189 22.5033 21.6466 22.499 21.7753C22.4947 21.9041 22.4573 22.0295 22.3905 22.1396C22.3237 22.2497 22.2296 22.3407 22.1174 22.4039C22.0051 22.4671 21.8785 22.5003 21.7497 22.5004ZM3.4872 21.0004H20.5122L20.5129 20.9981L12.0012 4.6279H11.9982L3.4857 20.9981L3.4872 21.0004Z" fill="white"/>
</svg>
