<svg width="32" height="32" viewBox="0 0 32 32" fill="none" xmlns="http://www.w3.org/2000/svg">
<circle cx="16" cy="16" r="16" fill="#C8CCD2"/>
<path d="M16 5.5C10.15 5.5 5.5 10.15 5.5 16C5.5 21.85 10.15 26.5 16 26.5C21.85 26.5 26.5 21.85 26.5 16C26.5 10.15 21.85 5.5 16 5.5ZM16 25C11.05 25 7 20.95 7 16C7 11.05 11.05 7 16 7C20.95 7 25 11.05 25 16C25 20.95 20.95 25 16 25Z" fill="white"/>
<path d="M20.05 21.25L16 17.2L11.95 21.25L10.75 20.05L14.8 16L10.75 11.95L11.95 10.75L16 14.8L20.05 10.75L21.25 11.95L17.2 16L21.25 20.05L20.05 21.25Z" fill="white"/>
</svg>
