<svg width="32" height="32" viewBox="0 0 32 32" fill="none" xmlns="http://www.w3.org/2000/svg">
<circle cx="16" cy="16" r="16" fill="#E34949"/>
<path d="M16.0018 6.62793H15.9988L7.48633 22.9974L7.48858 22.9997H24.5121L24.5136 22.9974L16.0018 6.62793ZM15.1566 10.9997H16.8441V17.7497H15.1566V10.9997ZM16.0003 21.4997C15.7778 21.4997 15.5603 21.4337 15.3753 21.3101C15.1903 21.1865 15.0461 21.0108 14.961 20.8052C14.8758 20.5996 14.8535 20.3734 14.8969 20.1552C14.9404 19.937 15.0475 19.7365 15.2048 19.5792C15.3622 19.4219 15.5626 19.3147 15.7809 19.2713C15.9991 19.2279 16.2253 19.2502 16.4308 19.3353C16.6364 19.4205 16.8121 19.5647 16.9357 19.7497C17.0593 19.9347 17.1253 20.1522 17.1253 20.3747C17.1253 20.673 17.0068 20.9592 16.7958 21.1702C16.5848 21.3812 16.2987 21.4997 16.0003 21.4997Z" fill="white"/>
<path d="M25.7497 24.5004H6.2497C6.1209 24.5003 5.99428 24.4671 5.88205 24.4039C5.76981 24.3407 5.67574 24.2497 5.6089 24.1396C5.54206 24.0295 5.5047 23.9041 5.50041 23.7753C5.49613 23.6466 5.52507 23.5189 5.58445 23.4046L15.3344 4.65465C15.3978 4.53295 15.4933 4.43096 15.6106 4.35979C15.7279 4.28861 15.8625 4.25098 15.9997 4.25098C16.1369 4.25098 16.2715 4.28861 16.3888 4.35979C16.5061 4.43096 16.6016 4.53295 16.6649 4.65465L26.4149 23.4046C26.4743 23.5189 26.5033 23.6466 26.499 23.7753C26.4947 23.9041 26.4573 24.0295 26.3905 24.1396C26.3237 24.2497 26.2296 24.3407 26.1174 24.4039C26.0051 24.4671 25.8785 24.5003 25.7497 24.5004ZM7.4872 23.0004H24.5122L24.5129 22.9981L16.0012 6.6279H15.9982L7.4857 22.9981L7.4872 23.0004Z" fill="white"/>
</svg>
