<svg width="183" height="159" viewBox="0 0 183 159" fill="none" xmlns="http://www.w3.org/2000/svg">
<path d="M94.6626 114.672H88.7417L86.1448 64.4023H97.2595L94.6626 114.672ZM85.21 129.077C85.21 126.66 85.8332 124.961 87.0797 123.981C88.3262 123.002 89.8497 122.512 91.6502 122.512C93.3815 122.512 94.8703 123.002 96.1168 123.981C97.4326 124.961 98.0905 126.66 98.0905 129.077C98.0905 131.429 97.4326 133.127 96.1168 134.173C94.8703 135.218 93.3815 135.741 91.6502 135.741C89.8497 135.741 88.3262 135.218 87.0797 134.173C85.8332 133.127 85.21 131.429 85.21 129.077Z" fill="white"/>
<path d="M182.309 158.529H0L91.1544 0L182.309 158.529ZM24.8619 144.118H157.447L91.1544 28.8263L24.8619 144.118Z" fill="white"/>
</svg>
