<svg width="15" height="21" viewBox="0 0 15 21" fill="none" xmlns="http://www.w3.org/2000/svg">
<path d="M13.5 9H12V4.5C12 3.30653 11.5259 2.16193 10.682 1.31802C9.83807 0.474106 8.69347 0 7.5 0C6.30653 0 5.16193 0.474106 4.31802 1.31802C3.47411 2.16193 3 3.30653 3 4.5V9H1.5C1.10218 9 0.720644 9.15804 0.43934 9.43934C0.158035 9.72064 0 10.1022 0 10.5V19.5C0 19.8978 0.158035 20.2794 0.43934 20.5607C0.720644 20.842 1.10218 21 1.5 21H13.5C13.8978 21 14.2794 20.842 14.5607 20.5607C14.842 20.2794 15 19.8978 15 19.5V10.5C15 10.1022 14.842 9.72064 14.5607 9.43934C14.2794 9.15804 13.8978 9 13.5 9ZM4.5 4.5C4.5 3.70435 4.81607 2.94129 5.37868 2.37868C5.94129 1.81607 6.70435 1.5 7.5 1.5C8.29565 1.5 9.05871 1.81607 9.62132 2.37868C10.1839 2.94129 10.5 3.70435 10.5 4.5V9H4.5V4.5ZM13.5 19.5H1.5V10.5H13.5V19.5Z" fill="white"/>
</svg>
