<svg width="18" height="17" viewBox="0 0 18 17" fill="none" xmlns="http://www.w3.org/2000/svg">
<path d="M8.5155 0H8.5125L0 16.3695L0.00225019 16.3717H17.0257L17.0272 16.3695L8.5155 0ZM7.67025 4.37175H9.35775V11.1217H7.67025V4.37175ZM8.514 14.8717C8.2915 14.8717 8.07399 14.8058 7.88898 14.6822C7.70398 14.5585 7.55978 14.3828 7.47464 14.1773C7.38949 13.9717 7.36721 13.7455 7.41062 13.5273C7.45402 13.309 7.56117 13.1086 7.7185 12.9513C7.87584 12.7939 8.07629 12.6868 8.29452 12.6434C8.51275 12.6 8.73895 12.6222 8.94452 12.7074C9.15008 12.7925 9.32579 12.9367 9.4494 13.1217C9.57302 13.3067 9.639 13.5242 9.639 13.7467C9.639 14.0451 9.52047 14.3313 9.30949 14.5422C9.09852 14.7532 8.81237 14.8717 8.514 14.8717Z" fill="#E34949"/>
</svg>
