<svg width="21" height="16" viewBox="0 0 21 16" fill="none" xmlns="http://www.w3.org/2000/svg">
<path d="M18.7484 6H17.9984V5.25C17.9984 4.425 17.3234 3.75 16.4984 3.75H8.99837V5.25H16.4984V7.5H18.7484V12H16.4984V14.25H2.99837V10.5H1.49837V14.25C1.49837 15.075 2.17337 15.75 2.99837 15.75H16.4984C17.3234 15.75 17.9984 15.075 17.9984 14.25V13.5H18.7484C19.5734 13.5 20.2484 12.825 20.2484 12V7.5C20.2484 6.675 19.5734 6 18.7484 6ZM8.99837 8.25C8.99837 8.1525 8.97587 8.0475 8.93837 7.9575L5.16587 0.4125C5.10355 0.288814 5.00819 0.184802 4.89037 0.111992C4.77255 0.0391828 4.63687 0.000419779 4.49837 0C4.21337 0 3.95087 0.1575 3.83087 0.4125L0.0808736 7.9125C0.0360722 8.00046 0.00926067 8.09648 0.00200721 8.19492C-0.00524625 8.29337 0.00720399 8.39228 0.0386297 8.48586C0.0700555 8.57944 0.119826 8.66581 0.18503 8.73992C0.250233 8.81404 0.329561 8.87441 0.418374 8.9175C0.523374 8.97 0.635874 9 0.755874 9H8.25587C8.66837 9 9.00587 8.6625 9.00587 8.25H8.99837ZM1.96337 7.5L4.49837 2.43L7.03337 7.5H1.96337Z" fill="white"/>
</svg>
