<svg width="21" height="21" viewBox="0 0 21 21" fill="none" xmlns="http://www.w3.org/2000/svg">
<path d="M20.2497 20.2494H0.7497C0.6209 20.2494 0.494283 20.2162 0.382049 20.153C0.269815 20.0898 0.175745 19.9987 0.108902 19.8886C0.04206 19.7785 0.00469762 19.6531 0.000414814 19.5244C-0.00386799 19.3956 0.025073 19.268 0.0844499 19.1537L9.83445 0.403673C9.89781 0.281975 9.99333 0.179987 10.1106 0.108811C10.2279 0.037636 10.3625 0 10.4997 0C10.6369 0 10.7715 0.037636 10.8888 0.108811C11.0061 0.179987 11.1016 0.281975 11.1649 0.403673L20.9149 19.1537C20.9743 19.268 21.0033 19.3956 20.999 19.5244C20.9947 19.6531 20.9573 19.7785 20.8905 19.8886C20.8237 19.9987 20.7296 20.0898 20.6174 20.153C20.5051 20.2162 20.3785 20.2494 20.2497 20.2494ZM1.9872 18.7494H19.0122L19.0129 18.7472L10.5012 2.37692H10.4982L1.9857 18.7472L1.9872 18.7494Z" fill="white"/>
</svg>
